<svg id="Calque_1" data-name="Calque 1" xmlns="http://www.w3.org/2000/svg" viewBox="0 0 90 89.99"><defs><style>.cls-1{fill:#fff;}.cls-2{fill:#4acfd9;}.cls-3{fill:#93338a;}.cls-4{fill:#f4f4f4;}.cls-5{fill:#bf6abb;}.cls-6{fill:#9baaab;}</style></defs><title>Plan de travail 1 copie 2</title><path class="cls-1" d="M44.3,16.83H3.9a1.4,1.4,0,0,0-1.4,1.4V80.56A1.4,1.4,0,0,0,3.9,82H44.3a1.4,1.4,0,0,0,1.4-1.4V18.23A1.4,1.4,0,0,0,44.3,16.83Z"/><path class="cls-2" d="M44.3,16.83H3.9a1.4,1.4,0,0,0-1.4,1.4V30.11H45.7V18.23A1.4,1.4,0,0,0,44.3,16.83Z"/><path class="cls-1" d="M8.39,25.62A1.4,1.4,0,0,1,7,24.22v-1.5a1.4,1.4,0,1,1,2.81,0v1.5A1.4,1.4,0,0,1,8.39,25.62Z"/><path class="cls-3" d="M45.7,43.47V35.06H35.32a4.23,4.23,0,0,0-3.94,2.73L17.92,73.69a1.41,1.41,0,0,0,.35,1.52,1.45,1.45,0,0,0,.5.3l5.22,2a1.4,1.4,0,0,0,1.81-.82l5.71-15.22H45.7V53h-11l3.58-9.54Z"/><path class="cls-4" d="M45.7,7.76H86.1a1.4,1.4,0,0,1,1.4,1.4V71.49a1.4,1.4,0,0,1-1.4,1.4H45.7a1.4,1.4,0,0,1-1.4-1.4V9.16A1.4,1.4,0,0,1,45.7,7.76Z"/><path class="cls-2" d="M45.7,7.76H86.1a1.4,1.4,0,0,1,1.4,1.4V21H44.3V9.16A1.4,1.4,0,0,1,45.7,7.76Z"/><path class="cls-1" d="M81.61,16.55a1.4,1.4,0,0,1-1.4-1.4v-1.5a1.4,1.4,0,1,1,2.81,0v1.5A1.4,1.4,0,0,1,81.61,16.55Z"/><path class="cls-5" d="M67.78,42.38a11.68,11.68,0,0,0-10-17.7H44.3a1.4,1.4,0,0,0-1.4,1.4v5.61a1.4,1.4,0,0,0,1.4,1.4H57.76a3.27,3.27,0,1,1,0,6.55H44.3A1.4,1.4,0,0,0,42.9,41v5.61a1.4,1.4,0,0,0,1.4,1.4h15a6.27,6.27,0,1,1,0,12.53h-15A1.4,1.4,0,0,0,42.9,62V67.6A1.4,1.4,0,0,0,44.3,69h15a14.67,14.67,0,0,0,8.52-26.63Z"/><path class="cls-6" d="M44.3,84.62a1.4,1.4,0,0,1-1.4-1.4V6.77a1.4,1.4,0,1,1,2.81,0V83.22A1.4,1.4,0,0,1,44.3,84.62Z"/></svg>