<svg id="Calque_1" data-name="Calque 1" xmlns="http://www.w3.org/2000/svg" viewBox="0 0 90 89.99"><defs><style>.cls-1{fill:#fff;}.cls-2{fill:#f4f4f4;}.cls-3{fill:#93338a;}.cls-4{fill:#4acfd9;}.cls-5{fill:#0295aa;}</style></defs><title>Plan de travail 1</title><path class="cls-1" d="M54.83,14.15h-51A1.37,1.37,0,0,0,2.5,15.51V73a1.37,1.37,0,0,0,1.37,1.37H14.15V86.86a1.36,1.36,0,0,0,2.32,1l13.8-13.45H54.83A1.36,1.36,0,0,0,56.19,73V15.51A1.37,1.37,0,0,0,54.83,14.15Z"/><path class="cls-2" d="M3.87,14.15A1.37,1.37,0,0,0,2.5,15.51V73a1.37,1.37,0,0,0,1.37,1.37H14.15V86.86a1.36,1.36,0,0,0,2.32,1L30.07,74.58V14.15Z"/><path class="cls-3" d="M44.64,25.79H14.06a1.37,1.37,0,0,0-1.37,1.37v4.37a1.37,1.37,0,0,0,1.37,1.37H44.64A1.36,1.36,0,0,0,46,31.53V27.16A1.36,1.36,0,0,0,44.64,25.79Z"/><path class="cls-3" d="M44.64,40.36H14.06a1.37,1.37,0,0,0-1.37,1.37v4.37a1.37,1.37,0,0,0,1.37,1.37H44.64A1.36,1.36,0,0,0,46,46.09V41.72A1.36,1.36,0,0,0,44.64,40.36Z"/><path class="cls-3" d="M44.64,54.92H14.06a1.37,1.37,0,0,0-1.37,1.37v4.37A1.37,1.37,0,0,0,14.06,62H44.64A1.36,1.36,0,0,0,46,60.65V56.28A1.36,1.36,0,0,0,44.64,54.92Z"/><path class="cls-4" d="M75.12,54.5A28.8,28.8,0,0,0,87.5,31.16C87.5,15,73.33,1.77,55.92,1.77S24.34,15,24.34,31.16s14.17,29.4,31.58,29.4a33.9,33.9,0,0,0,7.86-.92l13.87,5.2A1.36,1.36,0,0,0,79.35,63Z"/><path class="cls-5" d="M24.34,31.16c0,16.21,14.17,29.4,31.58,29.4V1.77C38.51,1.77,24.34,15,24.34,31.16Z"/><path class="cls-1" d="M80.67,32.53a1.36,1.36,0,0,1-1.37-1.37A19.35,19.35,0,0,0,77,22a1.37,1.37,0,0,1,2.41-1.28A22,22,0,0,1,82,31.16,1.36,1.36,0,0,1,80.67,32.53Z"/><path class="cls-1" d="M73.76,16.89a1.36,1.36,0,0,1-.94-.37A24.38,24.38,0,0,0,55.92,10a1.37,1.37,0,1,1,0-2.73A27.1,27.1,0,0,1,74.7,14.54a1.37,1.37,0,0,1-.94,2.36Z"/><path class="cls-1" d="M54.46,28a5.37,5.37,0,1,0,5.37,5.37A5.38,5.38,0,0,0,54.46,28Z"/><path class="cls-1" d="M69,28a5.37,5.37,0,1,0,5.37,5.37A5.38,5.38,0,0,0,69,28Z"/><path class="cls-1" d="M39.9,28a5.37,5.37,0,1,0,5.37,5.37A5.38,5.38,0,0,0,39.9,28Z"/></svg>