<svg id="Calque_1" data-name="Calque 1" xmlns="http://www.w3.org/2000/svg" viewBox="0 0 90 89.99"><defs><style>.cls-1{fill:#4acfd9;}.cls-2{fill:#0295aa;}.cls-3{fill:#fff;}.cls-4{fill:#f4f4f4;}.cls-5{fill:#cdd4d5;}.cls-6{fill:#9baaab;}.cls-7{fill:#bf6abb;}.cls-8{fill:#93338a;}.cls-9{fill:#365558;}.cls-10{fill:#e6eaea;}.cls-11{fill:#687f82;}</style></defs><title>Plan de travail 1 copie</title><path class="cls-1" d="M39.17,18.91a33,33,0,1,0,33,33A33.08,33.08,0,0,0,39.17,18.91Z"/><path class="cls-2" d="M6.12,52a33.08,33.08,0,0,0,33,33V18.91A33.08,33.08,0,0,0,6.12,52Z"/><path class="cls-3" d="M39.17,28.83A23.13,23.13,0,1,0,62.29,52,23.15,23.15,0,0,0,39.17,28.83Z"/><path class="cls-4" d="M16,52A23.15,23.15,0,0,0,39.17,75.08V28.83A23.15,23.15,0,0,0,16,52Z"/><path class="cls-5" d="M39.17,37.33A14.62,14.62,0,1,0,53.79,52,14.64,14.64,0,0,0,39.17,37.33Z"/><path class="cls-6" d="M24.55,52A14.64,14.64,0,0,0,39.17,66.58V37.33A14.64,14.64,0,0,0,24.55,52Z"/><path class="cls-7" d="M39.17,43.64A8.32,8.32,0,1,0,47.48,52,8.33,8.33,0,0,0,39.17,43.64Z"/><path class="cls-8" d="M30.85,52a8.33,8.33,0,0,0,8.32,8.32V43.64A8.33,8.33,0,0,0,30.85,52Z"/><path class="cls-9" d="M39.66,51.66a1.31,1.31,0,0,1-.93-2.24l31-31a1.31,1.31,0,1,1,1.86,1.86l-31,31A1.31,1.31,0,0,1,39.66,51.66Z"/><path class="cls-10" d="M72.17,1.31A1.31,1.31,0,0,0,69.93.38L51.6,18.71a1.31,1.31,0,0,0-.38.93V37.47s0,0,0,.06,0,.07,0,.1l0,.09,0,.09,0,.1,0,.06v0l0,.09,0,.08.06.08.06.07.07.07L72.17,17.83V1.31Z"/><path class="cls-6" d="M89.9,18.64a1.31,1.31,0,0,0-1.21-.81H72.17L51.6,38.4l.07.07.07.06.08.06.08,0,.09,0h0l.11,0h0l.17,0h18a1.31,1.31,0,0,0,.93-.38L89.62,20.07A1.31,1.31,0,0,0,89.9,18.64Z"/><path class="cls-11" d="M60.52,29.48a1.31,1.31,0,0,0,.93.38H79.82l2.63-2.63H62.76Z"/><path class="cls-6" d="M62.76,7.55l-2.63,2.63V28.55a1.31,1.31,0,0,0,.38.93l2.24-2.24V7.55Z"/></svg>