<svg id="Calque_1" data-name="Calque 1" xmlns="http://www.w3.org/2000/svg" viewBox="0 0 90 89.99"><defs><style>.cls-1{fill:#fff;}.cls-2{fill:#4acfd9;}.cls-3{fill:#bf6abb;}.cls-4{fill:#f4f4f4;}.cls-5{fill:#0295aa;}.cls-6{fill:#93338a;}</style></defs><title>Plan de travail 1 copie 3</title><path class="cls-1" d="M87.41,47A75.66,75.66,0,0,0,75.12,36.35c-7-4.89-17.78-10.71-29.87-10.71S22.32,31.46,15.37,36.35A75.66,75.66,0,0,0,3.08,47a1.35,1.35,0,0,0,0,1.79A75.66,75.66,0,0,0,15.37,59.49c7,4.89,17.78,10.71,29.87,10.71s22.92-5.83,29.87-10.71A75.66,75.66,0,0,0,87.41,48.81,1.35,1.35,0,0,0,87.41,47Z"/><path class="cls-2" d="M45.24,27.8A20.12,20.12,0,1,0,65.37,47.92,20.14,20.14,0,0,0,45.24,27.8Z"/><path class="cls-3" d="M52.56,41.58c-1.34-.72-3.68-1.07-7.31,1.13-3.64-2.19-6-1.84-7.31-1.13-1.74.93-2.7,2.93-2.7,5.62,0,5,8.27,11.23,9.22,11.92a1.35,1.35,0,0,0,1.6,0c.94-.69,9.22-6.89,9.22-11.92C55.26,44.51,54.3,42.51,52.56,41.58Z"/><path class="cls-4" d="M15.37,36.35A75.66,75.66,0,0,0,3.08,47a1.35,1.35,0,0,0,0,1.79A75.66,75.66,0,0,0,15.37,59.49C22.29,64.36,33,70.15,45.06,70.21V25.64C33,25.69,22.29,31.48,15.37,36.35Z"/><path class="cls-5" d="M25.12,47.92A20.14,20.14,0,0,0,45.06,68V27.8A20.14,20.14,0,0,0,25.12,47.92Z"/><path class="cls-6" d="M37.93,41.58c-1.74.93-2.7,2.93-2.7,5.62,0,5,8.27,11.23,9.22,11.92a1.35,1.35,0,0,0,.62.25V42.6C41.53,40.53,39.25,40.88,37.93,41.58Z"/><path class="cls-1" d="M58.6,49.27a1.35,1.35,0,0,1-1.35-1.35,11.9,11.9,0,0,0-.89-4.54,1.35,1.35,0,0,1,2.5-1A14.6,14.6,0,0,1,60,47.92,1.35,1.35,0,0,1,58.6,49.27Z"/><path class="cls-1" d="M54.74,39.89a1.35,1.35,0,0,1-1-.4,11.91,11.91,0,0,0-8.53-3.57,1.35,1.35,0,0,1,0-2.71A14.6,14.6,0,0,1,55.7,37.58a1.35,1.35,0,0,1-1,2.3Z"/><path class="cls-1" d="M45.24,15.47a1.35,1.35,0,0,1-1.35-1.35V4.73a1.35,1.35,0,0,1,2.71,0v9.38A1.35,1.35,0,0,1,45.24,15.47Z"/><path class="cls-1" d="M59.32,19.24a1.35,1.35,0,0,1-1.17-2l4.69-8.13a1.35,1.35,0,0,1,2.34,1.35l-4.69,8.13A1.35,1.35,0,0,1,59.32,19.24Z"/><path class="cls-1" d="M31.17,19.24A1.35,1.35,0,0,1,30,18.57L25.3,10.44a1.35,1.35,0,1,1,2.34-1.35l4.69,8.13a1.35,1.35,0,0,1-1.17,2Z"/></svg>